# xmcd
#
# Track frame offsets: 
#        150
#        24211
#        44371
#        57543
#        72608
#        93653
#        115952
#        132756
#        155830
#
# Disc length: 2318 seconds
#
# Revision: 5
# Processed by: cddbd v1.5.2PL0 Copyright (c) Steve Scherf et al.
# Submitted via: ExactAudioCopyFreeDBPlugin 1.0
#
DISCID=81090c09
DTITLE=Lou Rawls - All Things in Time
DYEAR=1976
DGENRE=Soul
TTITLE0=You're the One
TTITLE1=You'll Never Find Another Love Like Mine
TTITLE2=Time
TTITLE3=Groovy People
TTITLE4=Need You Forever
TTITLE5=From Now On
TTITLE6=Pure Imagination
TTITLE7=This Song Will Last Forever
TTITLE8=Let's Fall in Love Again
EXTD=
EXTT0=
EXTT1=
EXTT2=
EXTT3=
EXTT4=
EXTT5=
EXTT6=
EXTT7=
EXTT8=
PLAYORDER=
